<svg xmlns="http://www.w3.org/2000/svg" viewBox="0 0 100 100" width="100" height="100">
  <defs>
    <linearGradient id="bg" x1="0%" y1="0%" x2="100%" y2="100%">
      <stop offset="0%" style="stop-color:#16a34a;stop-opacity:1" />
      <stop offset="100%" style="stop-color:#15803d;stop-opacity:1" />
    </linearGradient>
    <linearGradient id="water" x1="0%" y1="0%" x2="100%" y2="0%">
      <stop offset="0%" style="stop-color:#0ea5e9;stop-opacity:1" />
      <stop offset="100%" style="stop-color:#0284c7;stop-opacity:1" />
    </linearGradient>
  </defs>
  
  <!-- Background -->
  <rect width="100" height="100" rx="20" fill="url(#bg)"/>
  
  <!-- Palm tree trunk -->
  <rect x="45" y="40" width="6" height="35" rx="3" fill="#8b4513"/>
  
  <!-- Palm fronds -->
  <path d="M48 45 Q40 35 35 40 Q45 45 48 45" fill="#22c55e"/>
  <path d="M48 45 Q56 35 61 40 Q51 45 48 45" fill="#22c55e"/>
  <path d="M48 45 Q38 25 33 30 Q43 40 48 45" fill="#16a34a"/>
  <path d="M48 45 Q58 25 63 30 Q53 40 48 45" fill="#16a34a"/>
  <path d="M48 45 Q48 20 45 15 Q48 35 48 45" fill="#15803d"/>
  <path d="M48 45 Q48 20 51 15 Q48 35 48 45" fill="#15803d"/>
  
  <!-- Water waves -->
  <path d="M10 70 Q20 65 30 70 T50 70 T70 70 T90 70 L90 85 L10 85 Z" fill="url(#water)" opacity="0.8"/>
  <path d="M5 75 Q15 72 25 75 T45 75 T65 75 T85 75 L85 85 L5 85 Z" fill="url(#water)" opacity="0.6"/>
  
  <!-- Coconuts -->
  <circle cx="44" cy="42" r="2.5" fill="#8b4513"/>
  <circle cx="49" cy="41" r="2.5" fill="#a0522d"/>
  <circle cx="52" cy="44" r="2.5" fill="#8b4513"/>
  
  <!-- Boat -->
  <path d="M65 78 Q75 76 80 78 L78 82 L67 82 Z" fill="#8b4513"/>
  <rect x="70" y="72" width="1" height="6" fill="#654321"/>
  <path d="M69 72 Q71 70 73 72 L71 74 Z" fill="#ef4444"/>
</svg>